<svg width="81" height="13" viewBox="0 0 81 13" fill="none" xmlns="http://www.w3.org/2000/svg">
<path d="M7.89062 7.63379C7.89062 9.26921 7.58333 10.5036 6.96875 11.3369C6.35938 12.165 5.42969 12.5791 4.17969 12.5791C2.95052 12.5791 2.02344 12.1755 1.39844 11.3682C0.778646 10.5557 0.460938 9.35514 0.445312 7.7666V5.79785C0.445312 4.16243 0.75 2.93587 1.35938 2.11816C1.97396 1.30046 2.90885 0.891602 4.16406 0.891602C5.40885 0.891602 6.33594 1.29004 6.94531 2.08691C7.5599 2.88379 7.875 4.0765 7.89062 5.66504V7.63379ZM5.99219 5.50879C5.99219 4.44108 5.84635 3.65983 5.55469 3.16504C5.26302 2.66504 4.79948 2.41504 4.16406 2.41504C3.54427 2.41504 3.08854 2.65202 2.79688 3.12598C2.50521 3.59473 2.35156 4.3291 2.33594 5.3291V7.90723C2.33594 8.96973 2.48438 9.76139 2.78125 10.2822C3.07812 10.8031 3.54427 11.0635 4.17969 11.0635C4.78906 11.0635 5.23958 10.8239 5.53125 10.3447C5.82292 9.86035 5.97656 9.10514 5.99219 8.0791V5.50879ZM32.2891 7.57129H21.6797V6.04004H32.2891V7.57129ZM50.9922 12.4229H49.1016V3.29004L46.3125 4.24316V2.6416L50.75 1.00879H50.9922V12.4229ZM55.4531 6.78223L56.0703 1.04785H62.1797V2.68848H57.6484L57.3359 5.40723C57.862 5.10514 58.4557 4.9541 59.1172 4.9541C60.2005 4.9541 61.0417 5.30046 61.6406 5.99316C62.2448 6.68587 62.5469 7.61816 62.5469 8.79004C62.5469 9.94629 62.2135 10.8682 61.5469 11.5557C60.8802 12.238 59.9661 12.5791 58.8047 12.5791C57.763 12.5791 56.8984 12.2848 56.2109 11.6963C55.5286 11.1025 55.1589 10.3213 55.1016 9.35254H56.9375C57.0104 9.90462 57.2083 10.3291 57.5312 10.626C57.8542 10.9176 58.276 11.0635 58.7969 11.0635C59.3802 11.0635 59.8333 10.8551 60.1562 10.4385C60.4844 10.0218 60.6484 9.4541 60.6484 8.73535C60.6484 8.04264 60.4688 7.49577 60.1094 7.09473C59.75 6.68848 59.2552 6.48535 58.625 6.48535C58.2812 6.48535 57.9896 6.53223 57.75 6.62598C57.5104 6.71452 57.25 6.8916 56.9688 7.15723L55.4531 6.78223ZM71.4531 7.63379C71.4531 9.26921 71.1458 10.5036 70.5312 11.3369C69.9219 12.165 68.9922 12.5791 67.7422 12.5791C66.513 12.5791 65.5859 12.1755 64.9609 11.3682C64.3411 10.5557 64.0234 9.35514 64.0078 7.7666V5.79785C64.0078 4.16243 64.3125 2.93587 64.9219 2.11816C65.5365 1.30046 66.4714 0.891602 67.7266 0.891602C68.9714 0.891602 69.8984 1.29004 70.5078 2.08691C71.1224 2.88379 71.4375 4.0765 71.4531 5.66504V7.63379ZM69.5547 5.50879C69.5547 4.44108 69.4089 3.65983 69.1172 3.16504C68.8255 2.66504 68.362 2.41504 67.7266 2.41504C67.1068 2.41504 66.651 2.65202 66.3594 3.12598C66.0677 3.59473 65.9141 4.3291 65.8984 5.3291V7.90723C65.8984 8.96973 66.0469 9.76139 66.3438 10.2822C66.6406 10.8031 67.1068 11.0635 67.7422 11.0635C68.3516 11.0635 68.8021 10.8239 69.0938 10.3447C69.3854 9.86035 69.5391 9.10514 69.5547 8.0791V5.50879ZM80.5469 7.63379C80.5469 9.26921 80.2396 10.5036 79.625 11.3369C79.0156 12.165 78.0859 12.5791 76.8359 12.5791C75.6068 12.5791 74.6797 12.1755 74.0547 11.3682C73.4349 10.5557 73.1172 9.35514 73.1016 7.7666V5.79785C73.1016 4.16243 73.4062 2.93587 74.0156 2.11816C74.6302 1.30046 75.5651 0.891602 76.8203 0.891602C78.0651 0.891602 78.9922 1.29004 79.6016 2.08691C80.2161 2.88379 80.5312 4.0765 80.5469 5.66504V7.63379ZM78.6484 5.50879C78.6484 4.44108 78.5026 3.65983 78.2109 3.16504C77.9193 2.66504 77.4557 2.41504 76.8203 2.41504C76.2005 2.41504 75.7448 2.65202 75.4531 3.12598C75.1615 3.59473 75.0078 4.3291 74.9922 5.3291V7.90723C74.9922 8.96973 75.1406 9.76139 75.4375 10.2822C75.7344 10.8031 76.2005 11.0635 76.8359 11.0635C77.4453 11.0635 77.8958 10.8239 78.1875 10.3447C78.4792 9.86035 78.6328 9.10514 78.6484 8.0791V5.50879Z" fill="#211A1D" fill-opacity="0.4"/>
</svg>
