<svg width="98" height="30" viewBox="0 0 98 30" fill="none" xmlns="http://www.w3.org/2000/svg">
<rect x="0.875" y="0.629883" width="96.5" height="28.5" rx="0.75" fill="#211A1D" fill-opacity="0.8" stroke="#F0F0F0" stroke-width="0.5"/>
<path d="M23.7188 15.9111H20.9121V15.3193H23.7188V15.9111ZM26.6953 16.4736H25.7227V19.3799H25.0137V13.04H25.7227V15.8525H26.6836L29.0098 13.04H29.8945L27.293 16.1162L30.1816 19.3799H29.2559L26.6953 16.4736ZM30.6797 16.1162C30.6797 15.5068 30.7969 14.958 31.0312 14.4697C31.2695 13.9814 31.6035 13.6025 32.0332 13.333C32.4668 13.0596 32.957 12.9229 33.5039 12.9229C34.3477 12.9229 35.0312 13.2197 35.5547 13.8135C36.0781 14.4033 36.3398 15.1865 36.3398 16.1631V16.3096C36.3398 16.9229 36.2207 17.4756 35.9824 17.9678C35.748 18.4561 35.416 18.833 34.9863 19.0986C34.5566 19.3643 34.0664 19.4971 33.5156 19.4971C32.6758 19.4971 31.9922 19.2021 31.4648 18.6123C30.9414 18.0186 30.6797 17.2334 30.6797 16.2568V16.1162ZM31.3828 16.3096C31.3828 17.0674 31.5781 17.6904 31.9688 18.1787C32.3633 18.6631 32.8789 18.9053 33.5156 18.9053C34.1484 18.9053 34.6602 18.6631 35.0508 18.1787C35.4453 17.6904 35.6426 17.0479 35.6426 16.251V16.1162C35.6426 15.6318 35.5527 15.1885 35.373 14.7861C35.1934 14.3838 34.9414 14.0732 34.6172 13.8545C34.293 13.6318 33.9219 13.5205 33.5039 13.5205C32.8789 13.5205 32.3691 13.7666 31.9746 14.2588C31.5801 14.7471 31.3828 15.3877 31.3828 16.1807V16.3096ZM41.3027 18.4307L43.8223 13.04H44.6895V19.3799H43.9863V14.1768L41.5488 19.3799H41.0508L38.5664 14.0596V19.3799H37.8691V13.04H38.7891L41.3027 18.4307ZM51.4395 19.3799H50.7363V16.4736H47.3203V19.3799H46.6172V13.04H47.3203V15.8818H50.7363V13.04H51.4395V19.3799ZM57.3223 19.3799C57.252 19.1807 57.207 18.8857 57.1875 18.4951C56.9414 18.8154 56.627 19.0635 56.2441 19.2393C55.8652 19.4111 55.4629 19.4971 55.0371 19.4971C54.4277 19.4971 53.9336 19.3271 53.5547 18.9873C53.1797 18.6475 52.9922 18.2178 52.9922 17.6982C52.9922 17.0811 53.248 16.5928 53.7598 16.2334C54.2754 15.874 54.9922 15.6943 55.9102 15.6943H57.1816V14.9736C57.1816 14.5205 57.041 14.165 56.7598 13.9072C56.4824 13.6455 56.0762 13.5146 55.541 13.5146C55.0527 13.5146 54.6484 13.6396 54.3281 13.8896C54.0078 14.1396 53.8477 14.4404 53.8477 14.792L53.1445 14.7861C53.1445 14.2822 53.3789 13.8467 53.8477 13.4795C54.3164 13.1084 54.8926 12.9229 55.5762 12.9229C56.2832 12.9229 56.8398 13.1006 57.2461 13.4561C57.6562 13.8076 57.8672 14.2998 57.8789 14.9326V17.9326C57.8789 18.5459 57.9434 19.0049 58.0723 19.3096V19.3799H57.3223ZM55.1191 18.876C55.5879 18.876 56.0059 18.7627 56.373 18.5361C56.7441 18.3096 57.0137 18.0068 57.1816 17.6279V16.2334H55.9277C55.2285 16.2412 54.6816 16.3701 54.2871 16.6201C53.8926 16.8662 53.6953 17.2061 53.6953 17.6396C53.6953 17.9951 53.8262 18.29 54.0879 18.5244C54.3535 18.7588 54.6973 18.876 55.1191 18.876ZM64.2129 13.6377H61.9043V19.3799H61.2012V13.6377H58.9805V13.04H64.2129V13.6377ZM70.2363 19.3799H69.5332V16.4736H66.1172V19.3799H65.4141V13.04H66.1172V15.8818H69.5332V13.04H70.2363V19.3799ZM76.1191 19.3799C76.0488 19.1807 76.0039 18.8857 75.9844 18.4951C75.7383 18.8154 75.4238 19.0635 75.041 19.2393C74.6621 19.4111 74.2598 19.4971 73.834 19.4971C73.2246 19.4971 72.7305 19.3271 72.3516 18.9873C71.9766 18.6475 71.7891 18.2178 71.7891 17.6982C71.7891 17.0811 72.0449 16.5928 72.5566 16.2334C73.0723 15.874 73.7891 15.6943 74.707 15.6943H75.9785V14.9736C75.9785 14.5205 75.8379 14.165 75.5566 13.9072C75.2793 13.6455 74.873 13.5146 74.3379 13.5146C73.8496 13.5146 73.4453 13.6396 73.125 13.8896C72.8047 14.1396 72.6445 14.4404 72.6445 14.792L71.9414 14.7861C71.9414 14.2822 72.1758 13.8467 72.6445 13.4795C73.1133 13.1084 73.6895 12.9229 74.373 12.9229C75.0801 12.9229 75.6367 13.1006 76.043 13.4561C76.4531 13.8076 76.6641 14.2998 76.6758 14.9326V17.9326C76.6758 18.5459 76.7402 19.0049 76.8691 19.3096V19.3799H76.1191ZM73.916 18.876C74.3848 18.876 74.8027 18.7627 75.1699 18.5361C75.541 18.3096 75.8105 18.0068 75.9785 17.6279V16.2334H74.7246C74.0254 16.2412 73.4785 16.3701 73.084 16.6201C72.6895 16.8662 72.4922 17.2061 72.4922 17.6396C72.4922 17.9951 72.623 18.29 72.8848 18.5244C73.1504 18.7588 73.4941 18.876 73.916 18.876ZM83.1738 13.04V19.3799H82.4707V16.8252H80.502L78.9551 19.3799H78.1816L79.7754 16.7373C79.3418 16.624 79.0039 16.4053 78.7617 16.0811C78.5234 15.7568 78.4043 15.374 78.4043 14.9326C78.4043 14.3584 78.6094 13.8994 79.0195 13.5557C79.4336 13.2119 79.9922 13.04 80.6953 13.04H83.1738ZM79.1074 14.9443C79.1074 15.3154 79.2246 15.6201 79.459 15.8584C79.6973 16.0967 80.0273 16.2197 80.4492 16.2275H82.4707V13.6377H80.6777C80.1895 13.6377 79.8047 13.7549 79.5234 13.9893C79.2461 14.2236 79.1074 14.542 79.1074 14.9443Z" fill="#F0F0F0"/>
<path d="M17.665 21.3799H15.125V11.5889L12.0928 12.5293V10.4639L17.3926 8.56543H17.665V21.3799Z" fill="#FFDF42"/>
</svg>
