<svg width="171" height="31" viewBox="0 0 171 31" fill="none" xmlns="http://www.w3.org/2000/svg">
<path d="M0.625 15.3799C0.625 7.09561 7.34073 0.379883 15.625 0.379883H85.625V30.3799H15.625C7.34073 30.3799 0.625 23.6642 0.625 15.3799Z" fill="#458BD1"/>
<rect x="1.025" y="0.779883" width="169.2" height="29.2" rx="14.6" stroke="#458BD1" stroke-width="0.8"/>
<line x1="85.875" y1="0.379883" x2="85.875" y2="30.3799" stroke="#458BD1" stroke-width="0.5"/>
<path d="M29.3271 17.0645C29.2497 18.1354 28.8532 18.9785 28.1377 19.5938C27.4268 20.209 26.488 20.5166 25.3213 20.5166C24.0452 20.5166 23.0404 20.0882 22.3066 19.2314C21.5775 18.3701 21.2129 17.1898 21.2129 15.6904V15.082C21.2129 14.125 21.3815 13.2819 21.7188 12.5527C22.056 11.8236 22.5368 11.2653 23.1611 10.8779C23.79 10.486 24.5192 10.29 25.3486 10.29C26.4971 10.29 27.4222 10.5977 28.124 11.2129C28.8258 11.8281 29.2314 12.6917 29.3408 13.8037H27.29C27.2399 13.1611 27.0599 12.6963 26.75 12.4092C26.4447 12.1175 25.9775 11.9717 25.3486 11.9717C24.665 11.9717 24.1523 12.2178 23.8105 12.71C23.4733 13.1976 23.3001 13.9564 23.291 14.9863V15.7383C23.291 16.8138 23.4528 17.5999 23.7764 18.0967C24.1045 18.5934 24.6195 18.8418 25.3213 18.8418C25.9548 18.8418 26.4264 18.6982 26.7363 18.4111C27.0508 18.1195 27.2308 17.6706 27.2764 17.0645H29.3271ZM36.9766 20.3799H34.9941V14.583H32.5195V20.3799H30.5439V12.9834H36.9766V20.3799ZM42.9443 12.9834H44.9199V20.3799H42.9443V15.8135L40.4697 20.3799H38.4873V12.9834H40.4697V17.543L42.9443 12.9834ZM49.5068 18.9238C49.8714 18.9238 50.1676 18.8236 50.3955 18.623C50.6234 18.4225 50.7419 18.1559 50.751 17.8232H52.6035C52.599 18.3245 52.4622 18.7848 52.1934 19.2041C51.9245 19.6188 51.5553 19.9424 51.0859 20.1748C50.6211 20.4027 50.1061 20.5166 49.541 20.5166C48.4837 20.5166 47.6497 20.1816 47.0391 19.5117C46.4284 18.8372 46.123 17.9076 46.123 16.7227V16.5928C46.123 15.4535 46.4261 14.5443 47.0322 13.8652C47.6383 13.1862 48.4701 12.8467 49.5273 12.8467C50.4525 12.8467 51.193 13.111 51.749 13.6396C52.3096 14.1637 52.5944 14.8633 52.6035 15.7383H50.751C50.7419 15.3555 50.6234 15.0456 50.3955 14.8086C50.1676 14.5671 49.8669 14.4463 49.4932 14.4463C49.0329 14.4463 48.6842 14.6149 48.4473 14.9521C48.2148 15.2848 48.0986 15.8271 48.0986 16.5791V16.7842C48.0986 17.5452 48.2148 18.0921 48.4473 18.4248C48.6797 18.7575 49.0329 18.9238 49.5068 18.9238ZM53.4238 16.6133C53.4238 15.8796 53.5651 15.2256 53.8477 14.6514C54.1302 14.0771 54.5358 13.6328 55.0645 13.3184C55.5977 13.0039 56.2152 12.8467 56.917 12.8467C57.915 12.8467 58.7285 13.152 59.3574 13.7627C59.9909 14.3734 60.3441 15.2028 60.417 16.251L60.4307 16.7568C60.4307 17.8916 60.1139 18.8031 59.4805 19.4912C58.847 20.1748 57.9971 20.5166 56.9307 20.5166C55.8643 20.5166 55.012 20.1748 54.374 19.4912C53.7406 18.8076 53.4238 17.8779 53.4238 16.7021V16.6133ZM55.3994 16.7568C55.3994 17.4587 55.5316 17.9964 55.7959 18.3701C56.0602 18.7393 56.4385 18.9238 56.9307 18.9238C57.4092 18.9238 57.7829 18.7415 58.0518 18.377C58.3206 18.0078 58.4551 17.4199 58.4551 16.6133C58.4551 15.9251 58.3206 15.3919 58.0518 15.0137C57.7829 14.6354 57.4046 14.4463 56.917 14.4463C56.4339 14.4463 56.0602 14.6354 55.7959 15.0137C55.5316 15.3874 55.3994 15.9684 55.3994 16.7568ZM64.5459 17.6523H63.7529V20.3799H61.7773V12.9834H63.7529V15.7656H64.457L66.0703 12.9834H68.5654L66.1455 16.5039L68.791 20.3799H66.1592L64.5459 17.6523Z" fill="white"/>
<path d="M110.265 15.7109H108.897V20.3799H108.057V10.4268H108.897V14.9932H110.224L114.072 10.4268H115.132L111.044 15.3213L115.433 20.3799H114.387L110.265 15.7109ZM121.441 20.3799C121.359 20.1475 121.307 19.8034 121.284 19.3477C120.997 19.7214 120.63 20.0107 120.184 20.2158C119.742 20.4163 119.272 20.5166 118.775 20.5166C118.064 20.5166 117.488 20.3184 117.046 19.9219C116.608 19.5254 116.39 19.0241 116.39 18.418C116.39 17.6979 116.688 17.1283 117.285 16.709C117.887 16.2897 118.723 16.0801 119.794 16.0801H121.277V15.2393C121.277 14.7106 121.113 14.2959 120.785 13.9951C120.462 13.6898 119.988 13.5371 119.363 13.5371C118.794 13.5371 118.322 13.6829 117.948 13.9746C117.575 14.2663 117.388 14.6172 117.388 15.0273L116.567 15.0205C116.567 14.4326 116.841 13.9245 117.388 13.4961C117.935 13.0632 118.607 12.8467 119.404 12.8467C120.229 12.8467 120.879 13.054 121.353 13.4688C121.831 13.8789 122.077 14.4531 122.091 15.1914V18.6914C122.091 19.4069 122.166 19.9424 122.316 20.2979V20.3799H121.441ZM118.871 19.792C119.418 19.792 119.906 19.6598 120.334 19.3955C120.767 19.1312 121.081 18.778 121.277 18.3359V16.709H119.814C118.999 16.7181 118.361 16.8685 117.9 17.1602C117.44 17.4473 117.21 17.8438 117.21 18.3496C117.21 18.7643 117.363 19.1084 117.668 19.3818C117.978 19.6553 118.379 19.792 118.871 19.792ZM130.226 16.7568C130.226 17.9098 129.97 18.8258 129.46 19.5049C128.95 20.1794 128.266 20.5166 127.409 20.5166C126.397 20.5166 125.623 20.1611 125.085 19.4502V23.2236H124.271V12.9834H125.03L125.071 14.0293C125.604 13.2409 126.377 12.8467 127.389 12.8467C128.273 12.8467 128.965 13.1816 129.467 13.8516C129.973 14.5215 130.226 15.4512 130.226 16.6406V16.7568ZM129.405 16.6133C129.405 15.6699 129.212 14.9248 128.824 14.3779C128.437 13.8311 127.897 13.5576 127.204 13.5576C126.703 13.5576 126.272 13.6784 125.912 13.9199C125.552 14.1615 125.276 14.5124 125.085 14.9727V18.5205C125.281 18.9443 125.561 19.2679 125.926 19.4912C126.29 19.7145 126.721 19.8262 127.218 19.8262C127.906 19.8262 128.441 19.5527 128.824 19.0059C129.212 18.4544 129.405 17.6569 129.405 16.6133ZM136.809 13.6807H134.115V20.3799H133.295V13.6807H130.704V12.9834H136.809V13.6807ZM142.715 20.3799C142.633 20.1475 142.58 19.8034 142.558 19.3477C142.271 19.7214 141.904 20.0107 141.457 20.2158C141.015 20.4163 140.546 20.5166 140.049 20.5166C139.338 20.5166 138.761 20.3184 138.319 19.9219C137.882 19.5254 137.663 19.0241 137.663 18.418C137.663 17.6979 137.962 17.1283 138.559 16.709C139.16 16.2897 139.996 16.0801 141.067 16.0801H142.551V15.2393C142.551 14.7106 142.387 14.2959 142.059 13.9951C141.735 13.6898 141.261 13.5371 140.637 13.5371C140.067 13.5371 139.595 13.6829 139.222 13.9746C138.848 14.2663 138.661 14.6172 138.661 15.0273L137.841 15.0205C137.841 14.4326 138.114 13.9245 138.661 13.4961C139.208 13.0632 139.88 12.8467 140.678 12.8467C141.503 12.8467 142.152 13.054 142.626 13.4688C143.104 13.8789 143.351 14.4531 143.364 15.1914V18.6914C143.364 19.4069 143.439 19.9424 143.59 20.2979V20.3799H142.715ZM140.145 19.792C140.691 19.792 141.179 19.6598 141.607 19.3955C142.04 19.1312 142.355 18.778 142.551 18.3359V16.709H141.088C140.272 16.7181 139.634 16.8685 139.174 17.1602C138.714 17.4473 138.483 17.8438 138.483 18.3496C138.483 18.7643 138.636 19.1084 138.941 19.3818C139.251 19.6553 139.652 19.792 140.145 19.792Z" fill="#458BD1"/>
</svg>
