<svg width="295" height="137" viewBox="0 0 295 137" fill="none" xmlns="http://www.w3.org/2000/svg">
<circle cx="115.625" cy="131.38" r="3" fill="#FFDF42"/>
<circle cx="131.625" cy="131.38" r="5" fill="white"/>
<circle cx="147.625" cy="131.38" r="5" fill="white"/>
<circle cx="163.625" cy="131.38" r="5" fill="white"/>
<circle cx="179.625" cy="131.38" r="5" fill="white"/>
<path d="M0.56434 10.3192C-0.0214467 10.905 -0.0214467 11.8548 0.56434 12.4405L10.1103 21.9865C10.6961 22.5723 11.6458 22.5723 12.2316 21.9865C12.8174 21.4007 12.8174 20.451 12.2316 19.8652L3.74632 11.3799L12.2316 2.8946C12.8174 2.30882 12.8174 1.35907 12.2316 0.773281C11.6458 0.187494 10.6961 0.187494 10.1103 0.773281L0.56434 10.3192ZM2.625 9.87988H1.625L1.625 12.8799H2.625V9.87988Z" fill="#FFDF42"/>
<path d="M293.686 10.3192C294.271 10.905 294.271 11.8548 293.686 12.4405L284.14 21.9865C283.554 22.5723 282.604 22.5723 282.018 21.9865C281.433 21.4007 281.433 20.451 282.018 19.8652L290.504 11.3799L282.018 2.8946C281.433 2.30882 281.433 1.35907 282.018 0.773281C282.604 0.187494 283.554 0.187494 284.14 0.773281L293.686 10.3192ZM291.625 9.87988H292.625V12.8799H291.625V9.87988Z" fill="#FFDF42"/>
</svg>
