<svg width="36" height="40" viewBox="0 0 36 40" fill="none" xmlns="http://www.w3.org/2000/svg">
<g id="Group 293">
<path id="Subtract" fill-rule="evenodd" clip-rule="evenodd" d="M14.8203 25.1859V39.3803H16.1853C19.1337 39.3803 21.8091 38.9253 24.2115 38.0153C26.6139 37.0689 28.6705 35.7585 30.3813 34.0841C32.0921 32.3733 33.4025 30.3349 34.3125 27.9689C35.2589 25.5665 35.7321 22.8911 35.7321 19.9427C35.7321 17.2855 35.3135 14.7921 34.4763 12.4625C33.6391 10.0965 32.4015 8.03987 30.7635 6.29267C29.1255 4.54546 27.0871 3.16226 24.6483 2.14306C22.2095 1.12386 19.3885 0.614258 16.1853 0.614258H14.8203V7.5293H19.1259C20.3096 7.5293 21.4022 7.79247 22.4037 8.31882C23.4053 8.82124 24.2589 9.49114 24.9645 10.3285C25.6929 11.142 26.2619 12.087 26.6717 13.1636C27.0814 14.2163 27.2862 15.281 27.2862 16.3576C27.2862 17.8409 26.979 19.2286 26.3644 20.5205C25.7498 21.7885 24.8962 22.8293 23.8036 23.6427L28.9251 33.0093H21.4136L17.1456 25.1859H14.8203ZM14.8203 19.085H18.8528C19.2625 19.085 19.6381 18.8458 19.9795 18.3673C20.3437 17.8888 20.5258 17.2189 20.5258 16.3576C20.5258 15.4724 20.321 14.8025 19.9112 14.3479C19.5015 13.8694 19.0918 13.6301 18.6821 13.6301H14.8203V19.085Z" fill="#FFDF42"/>
<path id="Vector 77" d="M10.725 28.1862V10.7148H9.36001L1.625 20.3606V22.1806H19.825" stroke="url(#paint0_linear_1_14998)" stroke-width="3"/>
</g>
<defs>
<linearGradient id="paint0_linear_1_14998" x1="12.09" y1="21.6349" x2="21.19" y2="21.6349" gradientUnits="userSpaceOnUse">
<stop stop-color="white"/>
<stop offset="1" stop-color="#211A1D" stop-opacity="0"/>
</linearGradient>
</defs>
</svg>
