<svg width="25" height="25" viewBox="0 0 25 25" fill="none" xmlns="http://www.w3.org/2000/svg">
<g id="Viber">
<g id="Viber_2">
<path id="Oval" d="M12.625 0.379883C19.2524 0.379883 24.625 5.75247 24.625 12.3799C24.625 19.0073 19.2524 24.3799 12.625 24.3799C5.99758 24.3799 0.625 19.0073 0.625 12.3799C0.625 5.75247 5.99758 0.379883 12.625 0.379883Z" fill="#7F4DA0"/>
<path id="Path" d="M15.8215 10.8593C15.7631 10.3852 15.6174 10.0129 15.3585 9.68308C15.0225 9.25845 14.593 9.00417 13.9572 8.85332C13.5428 8.75279 13.3754 8.76433 13.2255 8.90123C13.0859 9.02948 13.0586 9.2866 13.1653 9.45311C13.2403 9.57395 13.3269 9.61725 13.5676 9.6645C13.8882 9.72348 14.1097 9.80002 14.3112 9.91524C14.7389 10.1622 14.9381 10.5487 14.9594 11.1744C14.9694 11.4681 14.9948 11.5584 15.0974 11.6626C15.2876 11.8531 15.626 11.8161 15.7696 11.5881C15.8223 11.5022 15.8303 11.4648 15.8359 11.2654C15.8395 11.1419 15.8342 10.958 15.8215 10.8593Z" fill="white"/>
<path id="Path_2" d="M17.4976 11.3937C17.4132 9.94106 16.845 8.77231 15.8281 7.94999C15.2551 7.48794 14.5626 7.17021 13.8035 7.0157C13.5254 6.96044 13.0134 6.91564 12.9256 6.94127C12.8427 6.96499 12.7254 7.05474 12.6732 7.1359C12.6179 7.22391 12.6055 7.42041 12.6526 7.53407C12.7287 7.72409 12.8702 7.79122 13.2666 7.8259C13.8777 7.87936 14.5079 8.09404 14.9841 8.41186C15.5278 8.77372 15.9599 9.26867 16.2395 9.85028C16.4811 10.35 16.6297 11.0702 16.6255 11.715C16.6242 11.9483 16.6602 12.08 16.754 12.1763C16.8956 12.3244 17.102 12.3568 17.2841 12.2584C17.486 12.1523 17.5332 11.9659 17.4976 11.3937Z" fill="white"/>
<path id="Path_3" d="M19.352 16.9878C19.3236 16.9048 19.2573 16.7767 19.2099 16.7032C18.9115 16.2525 17.3082 14.9978 16.5077 14.5874C16.0506 14.3526 15.7119 14.2743 15.4609 14.3478C15.1909 14.4238 15.0488 14.5495 14.5964 15.1116C14.4141 15.337 14.227 15.5481 14.1772 15.5813C14.0541 15.6666 13.8125 15.7355 13.642 15.7355C13.2465 15.7331 12.5288 15.4769 11.977 15.1401C11.5483 14.8792 10.9989 14.4119 10.5773 13.9494C10.08 13.4062 9.74133 12.9271 9.47368 12.3863C9.12792 11.6913 9.04029 11.2667 9.18474 10.956C9.22027 10.8777 9.26765 10.7947 9.28893 10.7686C9.31026 10.7449 9.5329 10.5623 9.77918 10.363C10.2623 9.97877 10.3405 9.89101 10.4305 9.62772C10.5442 9.29326 10.5134 8.95171 10.3381 8.60779C10.2031 8.34687 9.85024 7.77761 9.59447 7.40997C9.2558 6.92612 8.41267 5.89195 8.24449 5.75197C7.94135 5.50531 7.55297 5.46259 7.12426 5.62866C6.67195 5.80419 5.82406 6.4873 5.46169 6.96406C5.13486 7.39574 5.00938 7.70171 4.99041 8.10494C4.97384 8.43699 5.00225 8.57457 5.17752 8.99916C6.54879 12.3293 8.59501 14.9883 11.4063 17.0993C12.8746 18.2022 14.3975 19.0419 15.9771 19.6159C16.8984 19.9504 17.2987 19.967 17.77 19.6918C17.9689 19.5732 18.4615 19.068 18.7362 18.7004C19.191 18.0884 19.3591 17.8061 19.4065 17.5808C19.4397 17.4266 19.4136 17.1586 19.352 16.9878Z" fill="white"/>
<path id="Path_4" d="M19.2023 11.7271C19.172 10.9054 19.0337 10.2314 18.7452 9.47994C18.4604 8.74075 18.1721 8.25839 17.6277 7.60598C17.113 6.99427 16.7133 6.64499 16.0793 6.2562C15.1947 5.7145 14.1182 5.35603 12.9118 5.20527C12.5004 5.15258 12.4073 5.15634 12.2811 5.24056C12.0365 5.40011 12.0398 5.79804 12.2851 5.95519C12.3663 6.00518 12.4384 6.0234 12.7675 6.06647C13.2727 6.13449 13.5975 6.19858 13.983 6.30375C15.4945 6.71694 16.6569 7.56152 17.434 8.81525C18.0843 9.86024 18.3542 10.9053 18.3159 12.24C18.3026 12.6913 18.3122 12.7707 18.3812 12.8791C18.5133 13.0812 18.8617 13.1211 19.0404 12.9535C19.1515 12.8513 19.1725 12.7746 19.1944 12.3883C19.2049 12.1869 19.2072 11.8895 19.2023 11.7271Z" fill="white"/>
</g>
</g>
</svg>
