<svg width="25" height="25" viewBox="0 0 25 25" fill="none" xmlns="http://www.w3.org/2000/svg">
<g id="WhatsApp">
<g id="WhatsApp_2">
<path id="Oval" d="M12.625 24.3799C19.2524 24.3799 24.625 19.0073 24.625 12.3799C24.625 5.75247 19.2524 0.379883 12.625 0.379883C5.99758 0.379883 0.625 5.75247 0.625 12.3799C0.625 19.0073 5.99758 24.3799 12.625 24.3799Z" fill="#25D366"/>
<path id="Page-1" fill-rule="evenodd" clip-rule="evenodd" d="M13.0198 19.0556H13.0168C11.8226 19.0551 10.6491 18.7555 9.60689 18.187L5.82422 19.1793L6.83653 15.4817C6.21209 14.3996 5.88351 13.172 5.88404 11.9144C5.88561 7.98014 9.08663 4.7793 13.0197 4.7793C14.9285 4.78012 16.7201 5.52323 18.0673 6.872C19.4145 8.22071 20.156 10.0135 20.1553 11.92C20.1537 15.8534 16.954 19.0539 13.0198 19.0556ZM9.78215 16.8952L9.99872 17.0237C10.9093 17.564 11.9531 17.85 13.0174 17.8504H13.0198C16.2886 17.8504 18.9492 15.1898 18.9505 11.9195C18.9511 10.3348 18.3348 8.84475 17.2151 7.7237C16.0953 6.60265 14.6062 5.98497 13.0221 5.98443C9.75068 5.98443 7.0901 8.64476 7.08881 11.9147C7.08835 13.0354 7.4019 14.1268 7.99559 15.071L8.1366 15.2954L7.53746 17.484L9.78215 16.8952ZM16.3704 13.4562C16.4948 13.5163 16.5787 13.5569 16.6146 13.6167C16.6591 13.6911 16.6591 14.048 16.5107 14.4646C16.362 14.881 15.6497 15.2612 15.3071 15.3123C15 15.3583 14.6113 15.3774 14.1842 15.2417C13.9252 15.1595 13.5931 15.0498 13.1678 14.8661C11.4963 14.1444 10.3667 12.5244 10.1532 12.2182C10.1383 12.1967 10.1278 12.1817 10.122 12.1739L10.1205 12.172C10.0262 12.0461 9.39396 11.2026 9.39396 10.3295C9.39396 9.50828 9.79738 9.07781 9.98308 8.87966C9.9958 8.86609 10.0075 8.8536 10.018 8.84216C10.1814 8.66366 10.3746 8.61903 10.4934 8.61903C10.6123 8.61903 10.7313 8.62013 10.8351 8.62535C10.848 8.62599 10.8613 8.62592 10.8751 8.62584C10.979 8.62523 11.1085 8.62447 11.2363 8.93141C11.2855 9.04954 11.3574 9.22467 11.4333 9.40937C11.5867 9.78288 11.7562 10.1955 11.786 10.2553C11.8306 10.3445 11.8603 10.4486 11.8009 10.5676C11.7919 10.5855 11.7837 10.6023 11.7758 10.6184C11.7312 10.7096 11.6983 10.7766 11.6226 10.865C11.5928 10.8998 11.562 10.9373 11.5312 10.9748C11.4699 11.0495 11.4085 11.1242 11.3551 11.1774C11.2659 11.2663 11.173 11.3628 11.277 11.5413C11.381 11.7198 11.7388 12.3036 12.2688 12.7764C12.8386 13.2846 13.3338 13.4994 13.5848 13.6083C13.6338 13.6295 13.6735 13.6468 13.7026 13.6613C13.8809 13.7506 13.9849 13.7357 14.0889 13.6167C14.1929 13.4977 14.5346 13.0961 14.6534 12.9176C14.7723 12.7392 14.8912 12.7689 15.0546 12.8284C15.218 12.8879 16.0946 13.3192 16.2729 13.4085C16.3077 13.4259 16.3402 13.4416 16.3704 13.4562Z" fill="#FDFDFD"/>
</g>
</g>
</svg>
