<svg width="31" height="31" viewBox="0 0 31 31" fill="none" xmlns="http://www.w3.org/2000/svg">
<rect x="1.125" y="0.879883" width="29" height="29" rx="1.5" stroke="#FFDF42"/>
<path d="M19.0312 21.3799H11.5781V20.3408L15.5156 15.9658C16.099 15.3044 16.5 14.7679 16.7188 14.3564C16.9427 13.9398 17.0547 13.5101 17.0547 13.0674C17.0547 12.4736 16.875 11.9867 16.5156 11.6064C16.1562 11.2262 15.6771 11.0361 15.0781 11.0361C14.3594 11.0361 13.7995 11.2419 13.3984 11.6533C13.0026 12.0596 12.8047 12.6273 12.8047 13.3564H11.3594C11.3594 12.3096 11.6953 11.4632 12.3672 10.8174C13.0443 10.1715 13.9479 9.84863 15.0781 9.84863C16.1354 9.84863 16.9714 10.1273 17.5859 10.6846C18.2005 11.2367 18.5078 11.9736 18.5078 12.8955C18.5078 14.0153 17.7943 15.3486 16.3672 16.8955L13.3203 20.2002H19.0312V21.3799Z" fill="white"/>
</svg>
