<svg width="31" height="31" viewBox="0 0 31 31" fill="none" xmlns="http://www.w3.org/2000/svg">
<rect x="1.125" y="0.879883" width="29" height="29" rx="1.5" stroke="#FFDF42"/>
<path d="M13.6797 14.9893H14.7656C15.4479 14.9788 15.9844 14.7992 16.375 14.4502C16.7656 14.1012 16.9609 13.6299 16.9609 13.0361C16.9609 11.7028 16.2969 11.0361 14.9688 11.0361C14.3438 11.0361 13.8438 11.2158 13.4688 11.5752C13.099 11.9294 12.9141 12.4007 12.9141 12.9893H11.4688C11.4688 12.0882 11.7969 11.3408 12.4531 10.7471C13.1146 10.1481 13.9531 9.84863 14.9688 9.84863C16.0417 9.84863 16.8828 10.1325 17.4922 10.7002C18.1016 11.2679 18.4062 12.057 18.4062 13.0674C18.4062 13.5622 18.2448 14.0413 17.9219 14.5049C17.6042 14.9684 17.1693 15.3148 16.6172 15.5439C17.2422 15.7419 17.724 16.07 18.0625 16.5283C18.4062 16.9867 18.5781 17.5465 18.5781 18.208C18.5781 19.2288 18.2448 20.0387 17.5781 20.6377C16.9115 21.2367 16.0443 21.5361 14.9766 21.5361C13.9089 21.5361 13.0391 21.2471 12.3672 20.6689C11.7005 20.0908 11.3672 19.3278 11.3672 18.3799H12.8203C12.8203 18.9788 13.0156 19.458 13.4062 19.8174C13.7969 20.1768 14.3203 20.3564 14.9766 20.3564C15.6745 20.3564 16.2083 20.1742 16.5781 19.8096C16.9479 19.445 17.1328 18.9215 17.1328 18.2393C17.1328 17.5778 16.9297 17.07 16.5234 16.7158C16.1172 16.3617 15.5312 16.1794 14.7656 16.1689H13.6797V14.9893Z" fill="white"/>
</svg>
